<svg width="18" height="18" viewBox="0 0 18 18" fill="none" xmlns="http://www.w3.org/2000/svg">
<path opacity="0.16" d="M14.1319 8.28208C14.1319 9.78498 13.5348 11.2263 12.4721 12.289C11.4094 13.3517 9.96808 13.9487 8.46519 13.9487C6.9623 13.9487 5.52096 13.3517 4.45825 12.289C3.39555 11.2263 2.79852 9.78498 2.79852 8.28208C2.79852 6.77919 3.39555 5.33785 4.45825 4.27514C5.52096 3.21244 6.9623 2.61542 8.46519 2.61542C9.96808 2.61542 11.4094 3.21244 12.4721 4.27514C13.5348 5.33785 14.1319 6.77919 14.1319 8.28208Z" fill="#787878"/>
<path d="M15.5485 15.3654L12.4722 12.2891M12.4722 12.2891C12.9984 11.7629 13.4158 11.1381 13.7006 10.4506C13.9854 9.76309 14.1319 9.0262 14.1319 8.28202C14.1319 7.53785 13.9854 6.80096 13.7006 6.11343C13.4158 5.4259 12.9984 4.80119 12.4722 4.27498C11.946 3.74877 11.3212 3.33135 10.6337 3.04657C9.94619 2.76179 9.2093 2.61521 8.46512 2.61521C7.72095 2.61521 6.98406 2.76179 6.29653 3.04657C5.609 3.33135 4.98429 3.74877 4.45808 4.27498C3.39535 5.33772 2.79831 6.77909 2.79831 8.28202C2.79831 9.78496 3.39535 11.2263 4.45808 12.2891C5.52081 13.3518 6.96219 13.9488 8.46512 13.9488C9.96805 13.9488 11.4094 13.3518 12.4722 12.2891Z" stroke="#787878" stroke-width="2" stroke-linecap="round" stroke-linejoin="round"/>
</svg>
