<svg width="25" height="21" viewBox="0 0 25 21" fill="none" xmlns="http://www.w3.org/2000/svg">
<path d="M10.35 20.1999C11.5388 20.1999 12.5025 19.4184 12.5025 18.4544C12.5025 17.4904 11.5388 16.709 10.35 16.709C9.16122 16.709 8.19751 17.4904 8.19751 18.4544C8.19751 19.4184 9.16122 20.1999 10.35 20.1999Z" stroke="white"/>
<path d="M20.3949 20.1999C21.5837 20.1999 22.5474 19.4184 22.5474 18.4544C22.5474 17.4904 21.5837 16.709 20.3949 16.709C19.2061 16.709 18.2424 17.4904 18.2424 18.4544C18.2424 19.4184 19.2061 20.1999 20.3949 20.1999Z" stroke="white"/>
<path d="M1.02246 1H3.89246L8.9207 13.7999H20.395" stroke="white" stroke-linecap="round" stroke-linejoin="round"/>
<path d="M7.80135 10.891L5.04041 3.90918H22.988C23.1017 3.90907 23.2139 3.93088 23.3152 3.97283C23.4165 4.01478 23.504 4.07566 23.5706 4.15045C23.6372 4.22524 23.6809 4.31179 23.6981 4.40297C23.7153 4.49415 23.7055 4.58734 23.6696 4.67485L21.2774 10.493C21.2299 10.6088 21.1386 10.7096 21.0165 10.781C20.8944 10.8524 20.7478 10.8909 20.5972 10.891H7.80135Z" stroke="white" stroke-linecap="round" stroke-linejoin="round"/>
</svg>
