<svg width="22" height="22" viewBox="0 0 22 22" fill="none" xmlns="http://www.w3.org/2000/svg">
<path d="M10.7189 13.4549C10.5079 13.4549 10.3097 13.3664 10.1603 13.2053L4.95669 7.5942C3.34832 5.85987 3.34832 3.03762 4.95669 1.30301C5.73624 0.462696 6.77214 0 7.87383 0C8.94223 0 9.94851 0.434996 10.7189 1.22726C11.4895 0.434996 12.4958 0.000282709 13.5639 0.000282709C14.6659 0.000282709 15.7018 0.462979 16.4811 1.30329C17.2604 2.14389 17.6894 3.26092 17.6894 4.44889C17.6894 5.63742 17.2601 6.75445 16.4808 7.59448L11.2772 13.2053C11.1281 13.3664 10.9296 13.4549 10.7189 13.4549ZM7.87383 1.13059C7.05208 1.13059 6.27935 1.47571 5.69797 2.10234C4.49851 3.39602 4.49851 5.50119 5.69797 6.79459L10.7189 12.2087L15.7395 6.79487C16.3209 6.16824 16.641 5.33499 16.641 4.4486C16.641 3.5625 16.3209 2.72925 15.7398 2.10234C15.1587 1.47571 14.3862 1.13059 13.5642 1.13059C12.7422 1.13059 11.9697 1.47571 11.3886 2.10234L10.7194 2.82451L10.0497 2.10234C9.46857 1.47571 8.69584 1.13059 7.87383 1.13059ZM18.1744 21.8289H12.5818V16.1856C12.5818 15.3026 12.8386 14.46 13.3246 13.7489C13.4376 13.5835 13.5629 13.4264 13.6974 13.2814L15.7621 11.0549C16.0507 10.744 16.5201 10.7438 16.8085 11.0549L16.858 11.1084C17.0513 11.3164 17.2091 11.5597 17.324 11.8269C17.7337 12.7788 17.5463 13.917 16.858 14.6593L16.1539 15.4182C16.1186 15.4566 16.0986 15.5085 16.0984 15.5626V15.8427L18.2698 13.5013C18.3332 13.4329 18.3694 13.3385 18.3694 13.2421V9.41615C18.3694 9.12248 18.4163 8.83446 18.5086 8.56029C18.7164 7.94158 19.1529 7.42518 19.7057 7.14422C20.0173 6.98566 20.351 6.90539 20.6975 6.90539C20.8952 6.90539 21.081 6.98848 21.2207 7.13914C21.3604 7.28979 21.4375 7.49019 21.4375 7.7033V14.2407C21.4375 14.9696 21.1633 15.6833 20.6852 16.1986L19.005 18.0104C18.9057 18.1175 18.8137 18.2325 18.7314 18.3529C18.3717 18.8764 18.1741 19.5225 18.1741 20.1732V21.8289H18.1744ZM13.6302 20.6984H17.1259V20.1732C17.1259 19.282 17.3967 18.397 17.8887 17.6811C18.0014 17.5163 18.128 17.3577 18.264 17.211L19.9442 15.3993C20.227 15.0943 20.3893 14.672 20.3893 14.2407V8.07612C20.3083 8.0976 20.2294 8.12812 20.1531 8.16685C19.8491 8.32146 19.6089 8.60523 19.4947 8.94583C19.4438 9.09656 19.4179 9.25575 19.4181 9.41615V13.2424C19.4181 13.6364 19.2698 14.0222 19.0113 14.3009L16.7631 16.7252C16.4753 17.0358 16.0462 17.1279 15.6698 16.9598C15.2934 16.7916 15.0502 16.3993 15.0502 15.9597V15.5626C15.0502 15.2062 15.1789 14.8707 15.4129 14.6186L16.1165 13.86C16.4952 13.4515 16.5982 12.8257 16.3731 12.3026C16.3436 12.2343 16.3091 12.1687 16.2698 12.1064L14.4389 14.0807C14.3416 14.1856 14.2507 14.2995 14.1689 14.4193C13.8166 14.9346 13.6305 15.5451 13.6305 16.185V20.6984H13.6302ZM8.85599 21.8289H3.2634V20.1732C3.2634 19.5228 3.06576 18.8767 2.70665 18.3538C2.62336 18.2321 2.53171 18.1173 2.43248 18.0104L0.752285 16.1986C0.274178 15.683 0 14.9693 0 14.2407V7.7033C0 7.49019 0.0770633 7.28979 0.216773 7.13914C0.356746 6.98848 0.542327 6.90539 0.739965 6.90539C1.08623 6.90539 1.41991 6.98566 1.73183 7.14422C2.28464 7.42518 2.72107 7.94158 2.92919 8.56086C3.02146 8.83446 3.06838 9.12248 3.06838 9.41615V13.2424C3.06838 13.3387 3.10481 13.4332 3.16798 13.5016L5.33939 15.843V15.5629C5.33939 15.5092 5.3192 15.4564 5.28382 15.4182L4.57976 14.659C3.8917 13.917 3.70454 12.7788 4.11398 11.8269C4.22892 11.5597 4.38669 11.3164 4.58003 11.1084L4.62957 11.0549C4.91816 10.7438 5.38762 10.7438 5.67595 11.0549L7.74067 13.2814C7.87488 13.4261 8.00043 13.5835 8.11341 13.7489C8.59938 14.4597 8.85625 15.3023 8.85625 16.1856V21.8289H8.85599ZM4.31188 20.6984H7.80751V16.1856C7.80751 15.5457 7.62141 14.9351 7.26912 14.4199C7.18707 14.3 7.09638 14.1861 6.99913 14.081L5.16822 12.1067C5.12891 12.1689 5.09431 12.2344 5.06469 12.3028C4.83953 12.826 4.94254 13.4518 5.32104 13.8597L6.02483 14.6186C6.25891 14.871 6.38761 15.2062 6.38761 15.5629V15.96C6.38761 16.3993 6.14436 16.7919 5.76795 16.96C5.39155 17.1282 4.96246 17.0358 4.67465 16.7252L2.42671 14.3012C2.16826 14.0225 2.0199 13.6367 2.0199 13.2426V9.41615C2.0199 9.25448 1.99421 9.09648 1.94362 8.94639C1.82907 8.60523 1.58897 8.32146 1.28491 8.16685C1.20914 8.12831 1.13004 8.09792 1.04874 8.07612V14.2407C1.04874 14.672 1.211 15.0943 1.49382 15.3993L3.17401 17.211C3.31005 17.3577 3.43666 17.5163 3.54989 17.6819C4.04111 18.397 4.31214 19.2823 4.31214 20.1732V20.6984H4.31188Z" fill="white"/>
</svg>
