<svg width="24" height="24" viewBox="0 0 24 24" fill="none" xmlns="http://www.w3.org/2000/svg">
<g clip-path="url(#clip0_88_1189)">
<path d="M10 5.33325H16V6.66659H10V5.33325Z" fill="black"/>
<path d="M10 8H16V9.33333H10V8Z" fill="black"/>
<path d="M10 10.6667H16V12.0001H10V10.6667Z" fill="black"/>
<path d="M10 13.3333H16V14.6666H10V13.3333Z" fill="black"/>
<path d="M10 16H16V17.3333H10V16Z" fill="black"/>
<path d="M7.33325 5.33325H8.66659V6.66659H7.33325V5.33325Z" fill="black"/>
<path d="M7.33325 8H8.66659V9.33333H7.33325V8Z" fill="black"/>
<path d="M7.33325 10.6667H8.66659V12.0001H7.33325V10.6667Z" fill="black"/>
<path d="M7.33325 13.3333H8.66659V14.6666H7.33325V13.3333Z" fill="black"/>
<path d="M7.33325 16H8.66659V17.3333H7.33325V16Z" fill="black"/>
<path d="M18.6667 1.33325H5.33333C4.97971 1.33325 4.64057 1.47373 4.39052 1.72378C4.14048 1.97382 4 2.31296 4 2.66659V21.3333C4 21.6869 4.14048 22.026 4.39052 22.2761C4.64057 22.5261 4.97971 22.6666 5.33333 22.6666H18.6667C19.0203 22.6666 19.3594 22.5261 19.6095 22.2761C19.8595 22.026 20 21.6869 20 21.3333V2.66659C20 2.31296 19.8595 1.97382 19.6095 1.72378C19.3594 1.47373 19.0203 1.33325 18.6667 1.33325ZM18.6667 21.3333H5.33333V2.66659H18.6667V21.3333Z" fill="black"/>
</g>
<defs>
<clipPath id="clip0_88_1189">
<rect width="24" height="24" fill="white"/>
</clipPath>
</defs>
</svg>
