<svg width="25" height="25" viewBox="0 0 25 25" fill="none" xmlns="http://www.w3.org/2000/svg">
<path d="M21.7933 6.92161C21.736 6.8133 21.6382 6.73204 21.5212 6.69558C21.4042 6.65912 21.2776 6.67041 21.1689 6.72698C21.0602 6.78356 20.9783 6.88082 20.9411 6.99756C20.9038 7.11429 20.9143 7.24102 20.9701 7.35007C21.966 9.25092 22.3268 11.4208 21.9998 13.5416C21.6728 15.6625 20.6751 17.6228 19.1529 19.1354C15.2221 23.0657 8.82558 23.067 4.89316 19.135C4.82826 19.0701 4.74558 19.0259 4.65557 19.008C4.56556 18.9901 4.47227 18.9994 4.3875 19.0345C4.30273 19.0697 4.23029 19.1292 4.17935 19.2055C4.12841 19.2818 4.10125 19.3716 4.10132 19.4633V22.1305C4.10132 22.2535 4.15019 22.3715 4.23719 22.4585C4.32419 22.5455 4.44218 22.5944 4.56522 22.5944C4.68825 22.5944 4.80624 22.5455 4.89324 22.4585C4.98024 22.3715 5.02912 22.2535 5.02912 22.1305V20.511C6.9898 22.1225 9.44689 23.0073 11.9848 23.0159C14.5227 23.0245 16.9858 22.1563 18.9573 20.5581C20.9288 18.9599 22.2879 16.7299 22.8047 14.2451C23.3214 11.7603 22.9642 9.17331 21.7933 6.92161Z" fill="#030303"/>
<path d="M4.89317 4.8761C8.82518 0.944504 15.2217 0.944916 19.1529 4.87569C19.2177 4.94066 19.3004 4.98494 19.3904 5.0029C19.4804 5.02086 19.5737 5.0117 19.6585 4.97658C19.7433 4.94146 19.8158 4.88196 19.8667 4.80562C19.9177 4.72928 19.9448 4.63953 19.9447 4.54774V1.88056C19.9447 1.75752 19.8958 1.63953 19.8088 1.55253C19.7218 1.46553 19.6038 1.41666 19.4808 1.41666C19.3578 1.41666 19.2398 1.46553 19.1528 1.55253C19.0658 1.63953 19.0169 1.75752 19.0169 1.88056V3.50009C14.696 -0.0578616 8.27559 0.181505 4.23729 4.2198C2.57488 5.87145 1.48526 8.01217 1.12812 10.3282C0.77098 12.6442 1.16511 15.0138 2.25274 17.0895C2.31003 17.1978 2.40784 17.279 2.52482 17.3155C2.64179 17.3519 2.76844 17.3407 2.87713 17.2841C2.98582 17.2275 3.06771 17.1302 3.10494 17.0135C3.14218 16.8968 3.13172 16.7701 3.07587 16.661C2.08001 14.7602 1.71915 12.5904 2.04619 10.4696C2.37323 8.34886 3.37096 6.38858 4.89317 4.8761Z" fill="#030303"/>
<path d="M5.948 11.938V17.068C5.94899 17.4033 6.08265 17.7247 6.31978 17.9618C6.55692 18.199 6.87826 18.3326 7.21362 18.3336H16.8323C17.1677 18.3327 17.489 18.199 17.7262 17.9619C17.9633 17.7247 18.097 17.4034 18.0979 17.068V11.938C18.097 11.6026 17.9633 11.2813 17.7262 11.0441C17.489 10.807 17.1677 10.6733 16.8323 10.6724H7.21362C6.87826 10.6734 6.55693 10.807 6.31979 11.0442C6.08266 11.2813 5.94899 11.6026 5.948 11.938ZM15.398 13.5118C15.594 13.5118 15.7857 13.5699 15.9487 13.6788C16.1117 13.7878 16.2387 13.9426 16.3137 14.1237C16.3888 14.3048 16.4084 14.5041 16.3702 14.6964C16.3319 14.8887 16.2375 15.0653 16.0989 15.204C15.9602 15.3426 15.7836 15.437 15.5913 15.4752C15.3991 15.5135 15.1997 15.4938 15.0186 15.4188C14.8375 15.3438 14.6827 15.2167 14.5738 15.0537C14.4648 14.8907 14.4067 14.6991 14.4067 14.503C14.407 14.2402 14.5115 13.9882 14.6973 13.8024C14.8832 13.6166 15.1351 13.512 15.398 13.5118ZM12.023 13.5118C12.219 13.5118 12.4107 13.5699 12.5737 13.6788C12.7367 13.7878 12.8637 13.9426 12.9387 14.1237C13.0138 14.3048 13.0334 14.5041 12.9952 14.6964C12.9569 14.8887 12.8625 15.0653 12.7239 15.204C12.5852 15.3426 12.4086 15.437 12.2163 15.4752C12.0241 15.5135 11.8247 15.4938 11.6436 15.4188C11.4625 15.3438 11.3077 15.2167 11.1988 15.0537C11.0898 14.8907 11.0317 14.6991 11.0317 14.503C11.032 14.2402 11.1365 13.9882 11.3223 13.8024C11.5082 13.6166 11.7601 13.512 12.023 13.5118ZM8.64796 13.5118C8.84401 13.5118 9.03565 13.5699 9.19866 13.6788C9.36167 13.7878 9.48872 13.9426 9.56375 14.1237C9.63877 14.3048 9.6584 14.5041 9.62015 14.6964C9.5819 14.8887 9.4875 15.0653 9.34887 15.204C9.21024 15.3426 9.03362 15.437 8.84133 15.4752C8.64905 15.5135 8.44975 15.4938 8.26862 15.4188C8.08749 15.3438 7.93268 15.2167 7.82377 15.0537C7.71485 14.8907 7.65671 14.6991 7.65671 14.503C7.65697 14.2402 7.76148 13.9882 7.94732 13.8024C8.13316 13.6166 8.38514 13.512 8.64796 13.5118Z" fill="#030303"/>
<path d="M16.1318 9.74435V8.05675C16.1318 6.96704 15.6989 5.92196 14.9284 5.15142C14.1578 4.38088 13.1128 3.948 12.0231 3.948C10.9333 3.948 9.88827 4.38088 9.11773 5.15142C8.34719 5.92196 7.91431 6.96704 7.91431 8.05675V9.74435H8.84212V8.05675C8.84212 7.2131 9.17725 6.40402 9.7738 5.80747C10.3703 5.21093 11.1794 4.87579 12.0231 4.87579C12.8667 4.87579 13.6758 5.21093 14.2724 5.80747C14.8689 6.40402 15.204 7.2131 15.204 8.05675V9.74435H16.1318Z" fill="#030303"/>
</svg>
