<svg width="31" height="31" viewBox="0 0 31 31" fill="none" xmlns="http://www.w3.org/2000/svg">
<g filter="url(#filter0_d_87_801)">
<path d="M26.4375 11.6182C26.441 13.7267 25.8081 15.7881 24.6201 17.5375C23.6403 18.9854 22.3156 20.1718 20.7631 20.9918C19.2106 21.8118 17.4781 22.2401 15.7187 22.2389C13.9594 22.2401 12.2269 21.8118 10.6744 20.9918C9.12187 20.1718 7.79717 18.9854 6.81742 17.5375C5.88457 16.1596 5.29048 14.5844 5.08278 12.9381C4.87508 11.2917 5.05954 9.62006 5.62139 8.05709C6.18323 6.49411 7.10682 5.08331 8.31813 3.93776C9.52943 2.79222 10.9948 1.9438 12.5966 1.46053C14.1985 0.977253 15.8923 0.872562 17.5424 1.15485C19.1925 1.43713 20.7528 2.09854 22.0984 3.08606C23.444 4.07357 24.5374 5.35972 25.2909 6.8414C26.0444 8.32307 26.4371 9.95906 26.4375 11.6182Z" stroke="white"/>
<path d="M17.5052 8.07812C17.5052 8.54758 17.317 8.99782 16.9819 9.32978C16.6469 9.66174 16.1925 9.84823 15.7187 9.84823V11.0283C16.1097 11.0283 16.4969 10.952 16.8581 10.8037C17.2194 10.6555 17.5476 10.4382 17.8241 10.1642C18.1006 9.89027 18.3199 9.56504 18.4695 9.20711C18.6191 8.84918 18.6962 8.46554 18.6962 8.07812H17.5052ZM15.7187 9.84823C15.2449 9.84823 14.7905 9.66174 14.4555 9.32978C14.1205 8.99782 13.9323 8.54758 13.9323 8.07812H12.7413C12.7413 8.46554 12.8183 8.84918 12.9679 9.20711C13.1176 9.56504 13.3369 9.89027 13.6134 10.1642C14.1717 10.7175 14.9291 11.0283 15.7187 11.0283V9.84823ZM13.9323 8.07812C13.9323 7.60866 14.1205 7.15842 14.4555 6.82646C14.7905 6.4945 15.2449 6.30801 15.7187 6.30801V5.12793C14.9291 5.12793 14.1717 5.43875 13.6134 5.99202C13.055 6.54529 12.7413 7.29568 12.7413 8.07812H13.9323ZM15.7187 6.30801C16.1925 6.30801 16.6469 6.4945 16.9819 6.82646C17.317 7.15842 17.5052 7.60866 17.5052 8.07812H18.6962C18.6962 7.29568 18.3825 6.54529 17.8241 5.99202C17.2657 5.43875 16.5084 5.12793 15.7187 5.12793V6.30801ZM7.57963 18.5289L7.00796 18.3613L6.91626 18.6693L7.12706 18.9136L7.57963 18.5289ZM23.8578 18.5289L24.3104 18.9136L24.5212 18.6693L24.4283 18.3613L23.8578 18.5289ZM12.1458 15.7486H19.2916V14.5685H12.1458V15.7486ZM12.1458 14.5685C10.9917 14.5687 9.86843 14.9379 8.943 15.6213C8.01756 16.3046 7.33815 17.2655 7.00796 18.3613L8.15011 18.6976C8.40719 17.8455 8.93486 17.0983 9.65472 16.567C10.3746 16.0357 11.2482 15.7487 12.1458 15.7486V14.5685ZM15.7187 21.649C14.2577 21.6505 12.8138 21.338 11.4865 20.7329C10.1593 20.1278 8.98032 19.2446 8.03101 18.1442L7.12706 18.9136C8.18828 20.1429 9.50595 21.1296 10.9892 21.8056C12.4725 22.4816 14.0861 22.8307 15.7187 22.8291V21.649ZM19.2916 15.7486C20.1894 15.7488 21.0632 16.0359 21.783 16.5675C22.5029 17.099 23.0305 17.8464 23.2874 18.6988L24.4283 18.3613C24.0981 17.2655 23.4199 16.3046 22.4945 15.6213C21.569 14.9379 20.4458 14.5687 19.2916 14.5685V15.7486ZM23.4065 18.1442C22.4571 19.2446 21.2782 20.1278 19.9509 20.7329C18.6237 21.338 17.1797 21.6505 15.7187 21.649V22.8291C17.3514 22.8307 18.965 22.4816 20.4482 21.8056C21.9315 21.1296 23.2492 20.1429 24.3104 18.9136L23.4065 18.1442Z" fill="white"/>
</g>
<defs>
<filter id="filter0_d_87_801" x="0.5" y="0.5" width="30.4375" height="30.3291" filterUnits="userSpaceOnUse" color-interpolation-filters="sRGB">
<feFlood flood-opacity="0" result="BackgroundImageFix"/>
<feColorMatrix in="SourceAlpha" type="matrix" values="0 0 0 0 0 0 0 0 0 0 0 0 0 0 0 0 0 0 127 0" result="hardAlpha"/>
<feOffset dy="4"/>
<feGaussianBlur stdDeviation="2"/>
<feComposite in2="hardAlpha" operator="out"/>
<feColorMatrix type="matrix" values="0 0 0 0 0 0 0 0 0 0 0 0 0 0 0 0 0 0 0.25 0"/>
<feBlend mode="normal" in2="BackgroundImageFix" result="effect1_dropShadow_87_801"/>
<feBlend mode="normal" in="SourceGraphic" in2="effect1_dropShadow_87_801" result="shape"/>
</filter>
</defs>
</svg>
