<svg width="19" height="21" viewBox="0 0 19 21" fill="none" xmlns="http://www.w3.org/2000/svg">
<path fill-rule="evenodd" clip-rule="evenodd" d="M12.9802 0.916748C16.5136 0.916748 18.5406 2.52579 18.5406 5.32892V19.2592C18.5406 19.8438 18.2136 20.37 17.6636 20.6642C17.1156 20.9593 16.4552 20.9651 15.9011 20.6776L9.69273 17.4509L3.4271 20.6843C3.15627 20.8242 2.8594 20.8951 2.56148 20.8951C2.25419 20.8951 1.9469 20.8194 1.66773 20.668C1.11877 20.3738 0.791687 19.8477 0.791687 19.264V5.15354C0.791687 2.46062 2.81981 0.916748 6.35627 0.916748H12.9802ZM12.9802 2.35425H6.35627C3.70106 2.35425 2.35419 3.29533 2.35419 5.15354V19.264C2.35419 19.3541 2.41044 19.403 2.45731 19.4279C2.50419 19.4547 2.57815 19.4739 2.66356 19.4298L9.31148 15.999C9.54898 15.8773 9.8396 15.8763 10.0781 16L16.6688 19.425C16.7552 19.471 16.8292 19.45 16.8761 19.4241C16.9229 19.3982 16.9781 19.3493 16.9781 19.2592L16.9778 5.21971C16.9699 4.3949 16.7964 2.35425 12.9802 2.35425ZM13.4373 7.36489C13.8686 7.36489 14.2186 7.68689 14.2186 8.08364C14.2186 8.48039 13.8686 8.80239 13.4373 8.80239H5.8144C5.38315 8.80239 5.03315 8.48039 5.03315 8.08364C5.03315 7.68689 5.38315 7.36489 5.8144 7.36489H13.4373Z" fill="black"/>
</svg>
