<svg width="21" height="21" viewBox="0 0 21 21" fill="none" xmlns="http://www.w3.org/2000/svg">
<path fill-rule="evenodd" clip-rule="evenodd" d="M4.84377 11.5416C9.08231 11.5416 9.27085 12.9791 9.27085 15.9687C9.27085 17.4666 9.27085 18.5322 8.64169 19.3124C7.91773 20.2114 6.60002 20.3958 4.84377 20.3958C3.08752 20.3958 1.76981 20.2114 1.04585 19.3124C0.416687 18.5322 0.416687 17.4676 0.416687 15.9947L1.19794 15.9687H0.416687C0.416687 12.9791 0.605229 11.5416 4.84377 11.5416ZM16.3021 11.5416C20.5406 11.5416 20.7292 12.9791 20.7292 15.9687C20.7292 17.4666 20.7292 18.5322 20.1 19.3124C19.3761 20.2114 18.0584 20.3958 16.3021 20.3958C14.5459 20.3958 13.2281 20.2114 12.5042 19.3124C11.875 18.5322 11.875 17.4676 11.875 15.9947L12.6563 15.9687H11.875C11.875 12.9791 12.0636 11.5416 16.3021 11.5416ZM5.05852 13.1045L4.84377 13.1041C2.12609 13.1041 1.98672 13.2991 1.97957 15.5802L1.98001 16.4689C1.98495 17.3761 2.01951 18.0315 2.26148 18.3333C2.53752 18.6749 3.35731 18.8333 4.84377 18.8333C6.33023 18.8333 7.15002 18.6739 7.42606 18.3322C7.70835 17.9812 7.70835 17.1478 7.70835 15.9937C7.70835 13.3893 7.70835 13.1168 5.05852 13.1045ZM16.5169 13.1045L16.3021 13.1041C13.5844 13.1041 13.4451 13.2991 13.4379 15.5802L13.4383 16.4689C13.4433 17.3761 13.4778 18.0315 13.7198 18.3333C13.9959 18.6749 14.8156 18.8333 16.3021 18.8333C17.7886 18.8333 18.6084 18.6739 18.8844 18.3322C19.1667 17.9812 19.1667 17.1478 19.1667 15.9937C19.1667 13.3893 19.1667 13.1168 16.5169 13.1045ZM4.84377 0.083252C9.08231 0.083252 9.27085 1.52075 9.27085 4.51033C9.27085 6.00825 9.27085 7.07388 8.64169 7.85408C7.91773 8.75304 6.60002 8.93742 4.84377 8.93742C3.08752 8.93742 1.76981 8.75304 1.04585 7.85408C0.416687 7.07388 0.416687 6.00929 0.416687 4.53638L1.19794 4.51033H0.416687C0.416687 1.52075 0.605229 0.083252 4.84377 0.083252ZM16.3021 0.083252C20.5406 0.083252 20.7292 1.52075 20.7292 4.51033C20.7292 6.00825 20.7292 7.07388 20.1 7.85408C19.3761 8.75304 18.0584 8.93742 16.3021 8.93742C14.5459 8.93742 13.2281 8.75304 12.5042 7.85408C11.875 7.07388 11.875 6.00929 11.875 4.53638L12.6563 4.51033H11.875C11.875 1.52075 12.0636 0.083252 16.3021 0.083252ZM5.05852 1.64622L4.84377 1.64575C2.12609 1.64575 1.98672 1.84077 1.97957 4.12185L1.98001 5.01052C1.98495 5.91778 2.01951 6.57313 2.26148 6.87492C2.53752 7.21659 3.35731 7.37492 4.84377 7.37492C6.33023 7.37492 7.15002 7.21554 7.42606 6.87388C7.70835 6.52284 7.70835 5.6895 7.70835 4.53534C7.70835 1.93096 7.70835 1.65848 5.05852 1.64622ZM16.5169 1.64622L16.3021 1.64575C13.5844 1.64575 13.4451 1.84077 13.4379 4.12185L13.4383 5.01052C13.4433 5.91778 13.4778 6.57313 13.7198 6.87492C13.9959 7.21659 14.8156 7.37492 16.3021 7.37492C17.7886 7.37492 18.6084 7.21554 18.8844 6.87388C19.1667 6.52284 19.1667 5.6895 19.1667 4.53534C19.1667 1.93096 19.1667 1.65848 16.5169 1.64622Z" fill="black"/>
</svg>
